<svg width="100%" height="100%" viewBox="0 0 580 420" version="1.1" xmlns="http://www.w3.org/2000/svg" xmlns:xlink="http://www.w3.org/1999/xlink" xml:space="preserve" xmlns:serif="http://www.serif.com/" style="fill-rule:evenodd;clip-rule:evenodd;stroke-linejoin:round;stroke-miterlimit:2;">
    <g transform="matrix(1,0,0,1,-200,-280)">
        <path d="M200,280L440,280L500,320L240,320L240,460L440,460L500,500L780,700L260,700L200,660L460,660L460,500L260,500L200,460L200,280ZM500,280L560,320L740,320L740,460L500,460L560,500L780,500L780,280L500,280Z" style="fill:url(#_Linear1);"/>
    </g>
    <defs>
        <linearGradient id="_Linear1" x1="0" y1="0" x2="1" y2="0" gradientUnits="userSpaceOnUse" gradientTransform="matrix(580,0,0,420,200,490)"><stop offset="0" style="stop-color:rgb(255,0,98);stop-opacity:1"/><stop offset="1" style="stop-color:rgb(0,152,219);stop-opacity:1"/></linearGradient>
    </defs>
</svg>
